<svg width="27" height="27" viewBox="0 0 27 27" fill="none" xmlns="http://www.w3.org/2000/svg">
<path d="M8.0437 23.7375C7.76245 23.4563 7.62183 23.1232 7.62183 22.7385C7.62183 22.3545 7.76245 22.0219 8.0437 21.7406L16.2843 13.5L8.01558 5.23125C7.75308 4.96875 7.62183 4.64063 7.62183 4.24688C7.62183 3.85313 7.76245 3.51562 8.0437 3.23438C8.32495 2.95312 8.65795 2.8125 9.0427 2.8125C9.4267 2.8125 9.75933 2.95312 10.0406 3.23438L19.4906 12.7125C19.6031 12.825 19.683 12.9469 19.7302 13.0781C19.7767 13.2094 19.8 13.35 19.8 13.5C19.8 13.65 19.7767 13.7906 19.7302 13.9219C19.683 14.0531 19.6031 14.175 19.4906 14.2875L10.0125 23.7656C9.74995 24.0281 9.4267 24.1594 9.0427 24.1594C8.65795 24.1594 8.32495 24.0188 8.0437 23.7375Z" fill="black"/>
</svg>
