<svg width="166" height="166" viewBox="0 0 166 166" fill="none" xmlns="http://www.w3.org/2000/svg">
<path d="M69.0594 103.795L104.741 83.1699L69.0594 62.5445V103.795ZM148.536 49.963C149.43 53.1943 150.048 57.5256 150.461 63.0257C150.942 68.5258 151.149 73.2697 151.149 77.3948L151.561 83.1699C151.561 98.2264 150.461 109.295 148.536 116.377C146.817 122.564 142.83 126.552 136.642 128.271C133.411 129.165 127.498 129.783 118.423 130.196C109.485 130.677 101.304 130.883 93.7411 130.883L82.8097 131.296C54.0029 131.296 36.0588 130.196 28.9774 128.271C22.7898 126.552 18.8022 122.564 17.0834 116.377C16.1896 113.145 15.5709 108.814 15.1584 103.314C14.6771 97.8139 14.4709 93.0701 14.4709 88.945L14.0583 83.1699C14.0583 68.1133 15.1584 57.0444 17.0834 49.963C18.8022 43.7754 22.7898 39.7878 28.9774 38.069C32.2087 37.1752 38.1213 36.5565 47.1965 36.144C56.1342 35.6627 64.3156 35.4565 71.8782 35.4565L82.8097 35.0439C111.616 35.0439 129.561 36.144 136.642 38.069C142.83 39.7878 146.817 43.7754 148.536 49.963Z" fill="#CB0E0E"/>
</svg>
